<svg xmlns="http://www.w3.org/2000/svg" xmlns:xlink="http://www.w3.org/1999/xlink" width="500" zoomAndPan="magnify" viewBox="0 0 375 374.999991" height="500" preserveAspectRatio="xMidYMid meet" version="1.0"><defs><clipPath id="dd10b37b15"><path d="M 37.5 12.703125 L 322.5 12.703125 L 322.5 362.203125 L 37.5 362.203125 Z M 37.5 12.703125 " clip-rule="nonzero"/></clipPath></defs><g clip-path="url(#dd10b37b15)"><path fill="#000000" d="M 322.058594 200.472656 C 322.058594 232.082031 322.015625 263.472656 322.058594 294.863281 C 322.101562 316.296875 322.363281 337.730469 322.492188 359.164062 C 322.492188 361.761719 322.230469 361.976562 319.675781 361.976562 C 317.8125 361.976562 315.910156 361.890625 314.046875 361.976562 C 311.101562 362.109375 308.503906 361.890625 306.035156 359.8125 C 304.433594 358.472656 301.921875 357.863281 299.800781 357.734375 C 294.429688 357.476562 288.972656 357.691406 283.558594 357.648438 C 280.617188 357.605469 278.191406 358.816406 275.894531 360.59375 C 275.027344 361.328125 273.730469 361.847656 272.605469 361.890625 C 269.484375 362.109375 266.367188 361.933594 263.292969 361.976562 C 261.734375 362.023438 260.867188 361.632812 260.953125 359.769531 C 261.34375 353.664062 259.265625 348.253906 255.757812 343.316406 C 255.324219 342.753906 254.503906 342.363281 253.808594 342.105469 C 253.375 341.886719 252.8125 342.0625 252.292969 342.0625 C 202.925781 342.0625 153.558594 342.0625 104.234375 342.0625 C 103.453125 342.0625 102.71875 341.886719 101.980469 341.714844 C 100.03125 341.410156 99.035156 342.234375 99.035156 344.269531 C 99.035156 349.378906 98.992188 354.488281 99.035156 359.640625 C 99.078125 361.371094 98.34375 362.066406 96.65625 361.976562 C 94.621094 361.890625 92.585938 361.890625 90.59375 361.976562 C 87.605469 362.195312 84.875 362.023438 82.625 359.683594 C 80.933594 357.996094 78.683594 357.648438 76.34375 357.648438 C 70.929688 357.648438 65.519531 357.691406 60.105469 357.648438 C 57.117188 357.605469 54.734375 358.816406 52.441406 360.636719 C 51.617188 361.328125 50.40625 361.847656 49.324219 361.890625 C 46.160156 362.066406 43 361.933594 39.839844 361.976562 C 38.234375 362.023438 37.5 361.589844 37.5 359.769531 C 37.542969 245.027344 37.542969 130.285156 37.5 15.585938 C 37.5 13.683594 37.933594 12.730469 40.097656 12.945312 C 42.175781 13.164062 44.300781 13.121094 46.378906 12.945312 C 49.410156 12.730469 52.09375 13.03125 54.519531 15.328125 C 55.601562 16.324219 57.507812 16.757812 59.023438 16.800781 C 65.300781 16.972656 71.582031 16.84375 77.859375 16.886719 C 80.027344 16.929688 81.800781 16.105469 83.230469 14.679688 C 84.441406 13.421875 85.785156 12.902344 87.515625 12.945312 C 90.765625 13.074219 94.011719 13.074219 97.261719 12.945312 C 99.296875 12.859375 99.296875 14.289062 99.296875 15.5 C 99.425781 21.433594 99.253906 27.40625 99.554688 33.339844 C 99.6875 34.984375 101.027344 36.628906 101.980469 38.144531 C 102.242188 38.578125 102.976562 38.839844 103.539062 38.925781 C 104.234375 39.054688 105.011719 38.96875 105.707031 38.96875 C 156.460938 38.96875 207.167969 38.925781 257.921875 39.011719 C 260.132812 39.011719 260.652344 38.363281 260.609375 36.242188 C 260.476562 29.183594 260.609375 22.125 260.523438 15.023438 C 260.523438 13.464844 260.910156 12.902344 262.558594 12.945312 C 265.890625 13.074219 269.226562 12.859375 272.515625 13.03125 C 273.730469 13.121094 275.070312 13.683594 276.023438 14.460938 C 277.84375 15.976562 279.792969 16.886719 282.175781 16.886719 C 288.238281 16.84375 294.300781 16.84375 300.363281 16.886719 C 302.832031 16.886719 304.996094 16.148438 306.640625 14.289062 C 307.507812 13.292969 308.417969 12.902344 309.804688 12.945312 C 313.09375 13.074219 316.429688 13.121094 319.761719 12.945312 C 321.710938 12.859375 322.316406 13.550781 322.058594 15.371094 C 321.972656 15.933594 322.058594 16.539062 322.058594 17.101562 C 322.058594 78.152344 322.058594 139.207031 322.058594 200.472656 M 122.636719 300.492188 C 140.046875 300.492188 157.410156 300.449219 174.820312 300.539062 C 176.507812 300.539062 177.332031 299.757812 177.808594 298.503906 C 181.792969 288.109375 185.734375 277.675781 189.675781 267.242188 C 193.527344 257.023438 197.382812 246.761719 201.238281 236.542969 C 202.277344 233.683594 203.75 232.472656 206.867188 232.515625 C 210.199219 232.601562 213.535156 232.644531 216.871094 232.992188 C 218.515625 233.164062 220.550781 233.46875 220.722656 235.847656 C 221.15625 241.738281 221.503906 247.625 222.066406 253.515625 C 222.28125 255.636719 222.628906 257.929688 223.625 259.75 C 226.65625 265.292969 230.339844 270.402344 231.03125 277.113281 C 231.59375 282.351562 233.28125 287.503906 234.582031 292.65625 C 235.449219 296.078125 235.449219 300.148438 240.6875 300.40625 C 243.9375 300.582031 245.839844 299.28125 245.839844 296.035156 C 245.796875 291.183594 243.589844 286.898438 241.902344 282.523438 C 240.210938 278.238281 239.863281 273.996094 241.726562 269.796875 C 243.285156 266.246094 243.71875 262.824219 242.421875 259.058594 C 241.035156 255.074219 240.125 250.917969 238.914062 246.890625 C 237.742188 243.078125 236.226562 239.398438 235.359375 235.589844 C 234.367188 231.476562 233.757812 227.230469 233.324219 222.988281 C 233.023438 219.785156 234.367188 218.660156 237.65625 218.660156 C 238.523438 218.660156 239.390625 218.746094 240.253906 218.617188 C 241.945312 218.441406 243.070312 217.402344 243.199219 215.757812 C 243.589844 210.953125 243.847656 206.1875 244.109375 201.382812 C 244.28125 197.917969 244.324219 194.410156 244.542969 190.949219 C 244.757812 188.132812 245.0625 185.277344 245.453125 182.460938 C 245.972656 178.996094 246.621094 175.578125 247.097656 172.113281 C 247.488281 169.296875 247.746094 166.441406 248.007812 163.582031 C 248.308594 160.164062 248.699219 156.785156 248.828125 153.363281 C 248.914062 151.371094 248.65625 149.425781 248.394531 147.476562 C 248.09375 145.09375 247.617188 142.757812 247.140625 140.417969 C 245.929688 134.703125 242.289062 130.15625 239.5625 125.175781 C 238.4375 123.183594 236.011719 122.320312 234.019531 123.011719 C 231.984375 123.703125 230.078125 124.699219 228.214844 125.695312 C 227.652344 126 227.21875 126.734375 227.003906 127.339844 C 225.660156 130.503906 227.523438 135.351562 230.554688 136.78125 C 231.722656 137.34375 232.9375 137.691406 234.148438 138.125 C 236.703125 138.988281 237.484375 140.808594 236.3125 143.277344 C 234.710938 146.609375 233.109375 149.988281 231.550781 153.40625 C 229.386719 158.171875 230.425781 161.589844 234.710938 164.535156 C 236.011719 165.445312 236.832031 166.570312 236.832031 168.433594 C 236.832031 171.417969 235.664062 174.0625 235.230469 176.832031 C 234.367188 181.984375 234.539062 187.355469 234.625 192.636719 C 234.710938 198.308594 235.230469 203.9375 235.40625 209.609375 C 235.449219 211.082031 234.496094 212.425781 232.980469 212.511719 C 231.679688 212.554688 230.554688 211.816406 230.207031 210.128906 C 228.867188 203.851562 227.394531 197.574219 225.878906 191.335938 C 225.140625 188.351562 224.273438 185.363281 223.234375 182.503906 C 222.976562 181.8125 221.71875 181.074219 220.898438 181.074219 C 220.117188 181.117188 218.863281 181.855469 218.644531 182.546875 C 217.042969 187.484375 215.527344 192.417969 214.273438 197.441406 C 213.320312 201.253906 213.015625 205.238281 212.019531 209.046875 C 210.589844 214.414062 207.820312 218.960938 202.363281 221.128906 C 199.070312 222.425781 195.605469 223.207031 192.230469 224.289062 C 187.292969 225.890625 182.789062 228.226562 180.015625 232.816406 C 178.285156 235.632812 177.027344 238.792969 175.6875 241.824219 C 174.085938 245.460938 174.515625 248.839844 177.117188 252 C 178.804688 254.035156 178.71875 256.847656 177.074219 259.011719 C 174.820312 262 172.308594 264.816406 170.058594 267.804688 C 166.375 272.78125 164.082031 278.28125 163.476562 284.558594 C 163.085938 288.195312 162.433594 289.496094 157.933594 289.234375 C 155.03125 289.0625 152.128906 288.890625 149.226562 288.804688 C 143.640625 288.628906 138.097656 288.542969 132.511719 288.328125 C 131.90625 288.285156 131.039062 287.9375 130.691406 287.460938 C 129.261719 285.425781 130.257812 281.703125 132.597656 281.097656 C 134.632812 280.621094 136.929688 280.53125 138.964844 280.964844 C 143.121094 281.875 146.066406 281.398438 148.058594 278.410156 C 149.183594 276.808594 149.921875 274.859375 150.527344 272.957031 C 151.824219 268.972656 152.257812 264.46875 155.074219 261.265625 C 159.058594 256.71875 160.140625 251.480469 160.097656 245.765625 C 160.097656 244.160156 160.054688 242.429688 160.574219 240.957031 C 162.695312 235.199219 164.902344 229.484375 167.285156 223.855469 C 169.105469 219.613281 172.394531 216.449219 176.078125 213.679688 C 181.101562 209.914062 186.167969 206.1875 190.972656 202.164062 C 195.953125 198.003906 199.546875 192.941406 199.503906 186.011719 C 199.460938 179.90625 199.546875 173.757812 199.460938 167.609375 C 199.460938 166.3125 199.289062 165.011719 198.898438 163.757812 C 196.820312 156.523438 194.308594 149.425781 193.832031 141.804688 C 193.660156 139.164062 191.148438 135.957031 189.113281 135.523438 C 186.125 134.917969 183.136719 134.355469 180.105469 133.792969 C 173.347656 132.496094 167.199219 129.941406 162.347656 124.960938 C 157.585938 120.109375 153.039062 115.089844 148.40625 110.195312 C 145.375 107.035156 143.859375 103.265625 144.160156 98.980469 C 144.289062 97.117188 145.113281 94.996094 146.324219 93.613281 C 148.058594 91.664062 152.085938 93.003906 153.167969 96.554688 C 153.515625 97.683594 153.949219 98.808594 154.46875 99.890625 C 159.316406 109.933594 167.285156 116.601562 177.636719 120.285156 C 182.355469 121.929688 187.292969 122.925781 192.230469 123.746094 C 196.171875 124.441406 200.199219 124.570312 204.179688 124.613281 C 205.957031 124.613281 208.253906 124.65625 208.988281 122.320312 C 209.636719 120.371094 208.035156 119.460938 206.867188 118.421875 C 205.609375 117.296875 205.175781 115.910156 205.785156 114.308594 C 206.433594 112.664062 207.6875 111.96875 209.421875 112.144531 C 211.285156 112.316406 212.0625 111.582031 212.105469 109.589844 C 212.191406 107.769531 212.886719 105.734375 214.921875 105.300781 C 216.695312 104.914062 218.777344 104.828125 220.507812 105.347656 C 222.714844 105.996094 224.75 105.691406 226.441406 104.695312 C 230.46875 102.359375 234.710938 101.449219 239.300781 101.707031 C 242.59375 101.882812 243.890625 102.746094 244.976562 105.953125 C 246.058594 109.199219 248.441406 109.460938 250.34375 107.726562 C 251.039062 107.121094 251.296875 105.820312 251.425781 104.78125 C 251.945312 100.539062 252.121094 96.339844 255.542969 93.003906 C 257.402344 91.101562 257.707031 88.503906 256.191406 85.816406 C 254.804688 83.351562 252.988281 82.222656 250.128906 82.222656 C 201.0625 82.265625 151.957031 82.265625 102.890625 82.265625 C 99.730469 82.265625 99.035156 82.785156 99.035156 86.164062 C 99.035156 156.394531 99.035156 226.625 99.035156 296.8125 C 99.035156 297.203125 99.035156 297.550781 99.035156 297.894531 C 99.035156 299.628906 99.601562 300.539062 101.636719 300.539062 C 108.476562 300.40625 115.363281 300.492188 122.636719 300.492188 M 276.371094 305.257812 C 274.507812 307.160156 273.554688 309.414062 273.554688 312.097656 C 273.554688 318.03125 273.554688 323.917969 273.554688 329.851562 C 273.554688 330.5 273.816406 331.191406 273.945312 331.84375 C 274.941406 336.734375 279.359375 339.03125 283.777344 339.03125 C 289.191406 339.03125 294.601562 338.941406 300.015625 339.03125 C 305.34375 339.117188 309.804688 334.917969 309.890625 329.503906 C 310.019531 323.746094 310.191406 317.945312 309.847656 312.183594 C 309.542969 306.902344 306.945312 302.789062 300.058594 302.660156 C 294.558594 302.574219 289.101562 302.703125 283.601562 302.617188 C 280.960938 302.617188 278.625 303.308594 276.371094 305.257812 M 62.875 302.660156 C 61.707031 302.660156 60.582031 302.617188 59.414062 302.660156 C 53.695312 302.960938 50.363281 306.6875 50.144531 311.882812 C 49.886719 317.855469 49.929688 323.832031 50.144531 329.808594 C 50.363281 335.175781 54.042969 338.726562 59.195312 338.941406 C 65.128906 339.246094 71.019531 339.246094 76.949219 338.941406 C 82.582031 338.683594 86.175781 335.21875 86.433594 329.808594 C 86.652344 323.832031 86.695312 317.8125 86.390625 311.882812 C 86.132812 306.640625 83.230469 303.003906 77.167969 302.703125 C 72.535156 302.484375 67.898438 302.660156 62.875 302.660156 M 307.117188 258.925781 C 305.167969 256.675781 302.699219 255.808594 299.710938 255.851562 C 294.167969 255.9375 288.582031 256.15625 283.039062 255.808594 C 277.671875 255.464844 272.863281 260.140625 273.082031 265.8125 C 273.296875 271.398438 273.035156 277.027344 273.167969 282.65625 C 273.210938 284.125 273.511719 285.730469 274.207031 286.984375 C 276.199219 290.796875 279.75 292.179688 283.820312 292.222656 C 288.800781 292.308594 293.78125 292.308594 298.761719 292.265625 C 305.257812 292.179688 309.542969 288.371094 309.5 281.617188 C 309.457031 276.550781 309.542969 271.527344 309.5 266.460938 C 309.457031 263.820312 309.066406 261.265625 307.117188 258.925781 M 54.214844 290.535156 C 55.167969 290.96875 56.164062 291.746094 57.117188 291.789062 C 64.609375 291.878906 72.058594 292.09375 79.507812 291.703125 C 83.058594 291.53125 86.347656 287.15625 86.433594 283.738281 C 86.566406 277.328125 86.566406 270.878906 86.433594 264.46875 C 86.304688 259.53125 81.972656 255.851562 77.601562 255.894531 C 71.320312 255.9375 65.042969 255.808594 58.761719 255.9375 C 57.421875 255.984375 55.949219 256.503906 54.734375 257.152344 C 51.183594 259.058594 50.273438 262.5625 50.144531 266.203125 C 49.972656 271.09375 50.101562 275.988281 50.101562 280.878906 C 50.101562 284.558594 50.96875 287.894531 54.214844 290.535156 M 307.765625 39.617188 C 305.472656 36.804688 302.527344 35.765625 298.890625 35.894531 C 293.304688 36.066406 287.675781 35.980469 282.042969 35.9375 C 277.628906 35.894531 273.296875 39.574219 273.167969 44.46875 C 272.992188 50.746094 273.082031 57.023438 273.125 63.300781 C 273.210938 68.109375 278.148438 72.09375 282 71.917969 C 288.410156 71.703125 294.820312 71.875 301.226562 71.875 C 301.835938 71.875 302.484375 71.789062 303.046875 71.574219 C 307.378906 69.96875 309.371094 66.679688 309.457031 62.261719 C 309.585938 56.722656 309.628906 51.136719 309.414062 45.59375 C 309.328125 43.730469 308.332031 41.914062 307.765625 39.617188 M 74.570312 71.875 C 75.738281 71.875 76.90625 71.746094 78.035156 71.875 C 81.542969 72.351562 86.476562 67.632812 86.476562 63.519531 C 86.476562 57.109375 86.519531 50.703125 86.476562 44.25 C 86.433594 39.964844 81.628906 35.808594 78.035156 35.894531 C 71.972656 36.023438 65.90625 36.066406 59.84375 35.894531 C 54 35.722656 50.1875 40.050781 50.144531 45.59375 C 50.058594 51.871094 50.316406 58.148438 50.535156 64.429688 C 50.664062 68.109375 54.691406 71.875 58.328125 71.875 C 63.613281 71.875 68.851562 71.875 74.570312 71.875 M 309.5 214.113281 C 309.371094 212.207031 309.285156 210.300781 309.023438 208.441406 C 308.417969 203.894531 304.910156 200.90625 300.277344 200.90625 C 294.214844 200.90625 288.148438 200.90625 282.085938 200.90625 C 277.0625 200.90625 273.339844 204.761719 273.167969 209.566406 C 272.949219 215.757812 273.082031 221.992188 273.125 228.183594 C 273.167969 232.949219 277.972656 237.105469 282.132812 236.886719 C 287.933594 236.628906 293.824219 236.628906 299.625 236.886719 C 305.210938 237.148438 309.542969 232.859375 309.5 226.886719 C 309.457031 222.773438 309.5 218.660156 309.5 214.113281 M 302.789062 91.359375 C 302.136719 91.230469 301.445312 90.925781 300.796875 90.925781 C 294.515625 90.925781 288.238281 90.925781 281.957031 90.925781 C 277.019531 90.925781 273.339844 95.039062 273.167969 99.71875 C 272.949219 105.867188 273.082031 111.96875 273.125 118.117188 C 273.125 123.011719 278.058594 127.082031 282.042969 126.910156 C 288.0625 126.691406 294.167969 126.648438 300.1875 126.910156 C 305.210938 127.125 309.371094 122.707031 309.457031 117.644531 C 309.585938 111.925781 309.628906 106.210938 309.457031 100.539062 C 309.328125 96.296875 307.507812 92.917969 302.789062 91.359375 M 86.476562 226.667969 C 86.476562 220.953125 86.433594 215.28125 86.476562 209.566406 C 86.519531 205.238281 82.277344 200.90625 77.902344 200.90625 C 71.625 200.90625 65.34375 200.820312 59.066406 200.949219 C 57.59375 200.992188 56.035156 201.554688 54.648438 202.25 C 51.359375 203.894531 50.273438 207.183594 50.1875 210.433594 C 50.015625 216.710938 50.316406 223.03125 50.535156 229.3125 C 50.707031 233.640625 55.472656 237.019531 59.324219 236.886719 C 65.171875 236.671875 71.019531 236.84375 76.863281 236.84375 C 82.882812 236.84375 86.476562 233.207031 86.476562 226.667969 M 274.855469 150.03125 C 274.292969 151.71875 273.253906 153.40625 273.210938 155.140625 C 272.992188 161.113281 273.082031 167.132812 273.125 173.109375 C 273.125 178 278.058594 182.070312 282.042969 181.898438 C 288.453125 181.683594 294.863281 181.855469 301.273438 181.8125 C 302.136719 181.8125 303.046875 181.550781 303.828125 181.207031 C 307.8125 179.429688 309.414062 176.140625 309.5 171.984375 C 309.542969 166.484375 309.585938 160.984375 309.457031 155.527344 C 309.371094 150.246094 305.820312 145.832031 299.929688 145.917969 C 294.515625 145.960938 289.101562 146.003906 283.691406 145.875 C 280.140625 145.785156 277.109375 146.738281 274.855469 150.03125 M 50.101562 172.546875 C 50.230469 172.847656 50.492188 173.152344 50.535156 173.453125 C 50.882812 178.652344 54.300781 181.855469 59.542969 181.855469 C 65.605469 181.855469 71.667969 181.59375 77.6875 181.941406 C 82.191406 182.203125 86.652344 176.703125 86.519531 172.933594 C 86.304688 166.960938 86.347656 160.984375 86.519531 155.007812 C 86.652344 150.375 82.019531 145.742188 77.46875 145.875 C 71.839844 146.046875 66.210938 146.046875 60.582031 145.875 C 53.566406 145.65625 50.144531 150.246094 50.101562 156.523438 C 50.058594 161.722656 50.101562 166.917969 50.101562 172.546875 M 86.476562 102.835938 C 86.476562 101.839844 86.476562 100.800781 86.476562 99.804688 C 86.390625 94.738281 81.972656 90.839844 77.46875 90.882812 C 71.40625 90.96875 65.34375 90.882812 59.28125 90.96875 C 57.984375 90.96875 56.640625 91.445312 55.386719 91.921875 C 51.746094 93.4375 50.273438 96.730469 50.1875 100.238281 C 50.015625 106.90625 50.101562 113.574219 50.621094 120.152344 C 50.925781 123.835938 55.515625 126.953125 58.460938 126.910156 C 64.78125 126.777344 71.148438 126.5625 77.46875 126.953125 C 81.628906 127.253906 86.78125 122.101562 86.519531 117.730469 C 86.261719 112.921875 86.476562 108.074219 86.476562 102.835938 " fill-opacity="1" fill-rule="nonzero"/></g></svg>